%TF.GenerationSoftware,KiCad,Pcbnew,(5.1.6)-1*%
%TF.CreationDate,2020-08-15T21:43:02-04:00*%
%TF.ProjectId,chords,63686f72-6473-42e6-9b69-6361645f7063,rev?*%
%TF.SameCoordinates,Original*%
%TF.FileFunction,Soldermask,Bot*%
%TF.FilePolarity,Negative*%
%FSLAX46Y46*%
G04 Gerber Fmt 4.6, Leading zero omitted, Abs format (unit mm)*
G04 Created by KiCad (PCBNEW (5.1.6)-1) date 2020-08-15 21:43:02*
%MOMM*%
%LPD*%
G01*
G04 APERTURE LIST*
%ADD10C,5.100000*%
%ADD11C,1.624000*%
%ADD12C,1.700000*%
%ADD13O,1.700000X1.700000*%
G04 APERTURE END LIST*
D10*
%TO.C,REF\u002A\u002A*%
X71120000Y-100330000D03*
%TD*%
%TO.C,REF\u002A\u002A*%
X71120000Y-44450000D03*
%TD*%
%TO.C,REF\u002A\u002A*%
X176530000Y-100330000D03*
%TD*%
%TO.C,REF\u002A\u002A*%
X176530000Y-44450000D03*
%TD*%
D11*
%TO.C,SW20*%
X165100000Y-92710000D03*
X160020000Y-92710000D03*
%TD*%
%TO.C,SW5*%
X129540000Y-72390000D03*
X124460000Y-72390000D03*
%TD*%
%TO.C,GND1*%
G36*
G01*
X81700000Y-48844375D02*
X81700000Y-47675625D01*
G75*
G02*
X81965625Y-47410000I265625J0D01*
G01*
X83134375Y-47410000D01*
G75*
G02*
X83400000Y-47675625I0J-265625D01*
G01*
X83400000Y-48844375D01*
G75*
G02*
X83134375Y-49110000I-265625J0D01*
G01*
X81965625Y-49110000D01*
G75*
G02*
X81700000Y-48844375I0J265625D01*
G01*
G37*
%TD*%
%TO.C,R1*%
G36*
G01*
X119800000Y-48844375D02*
X119800000Y-47675625D01*
G75*
G02*
X120065625Y-47410000I265625J0D01*
G01*
X121234375Y-47410000D01*
G75*
G02*
X121500000Y-47675625I0J-265625D01*
G01*
X121500000Y-48844375D01*
G75*
G02*
X121234375Y-49110000I-265625J0D01*
G01*
X120065625Y-49110000D01*
G75*
G02*
X119800000Y-48844375I0J265625D01*
G01*
G37*
%TD*%
%TO.C,R2*%
G36*
G01*
X126150000Y-48844375D02*
X126150000Y-47675625D01*
G75*
G02*
X126415625Y-47410000I265625J0D01*
G01*
X127584375Y-47410000D01*
G75*
G02*
X127850000Y-47675625I0J-265625D01*
G01*
X127850000Y-48844375D01*
G75*
G02*
X127584375Y-49110000I-265625J0D01*
G01*
X126415625Y-49110000D01*
G75*
G02*
X126150000Y-48844375I0J265625D01*
G01*
G37*
%TD*%
D12*
%TO.C,Rpd3*%
X68580000Y-67310000D03*
D13*
X78740000Y-67310000D03*
%TD*%
D12*
%TO.C,Rpd1*%
X68580000Y-57150000D03*
D13*
X78740000Y-57150000D03*
%TD*%
D12*
%TO.C,Rpd2*%
X68580000Y-62230000D03*
D13*
X78740000Y-62230000D03*
%TD*%
D12*
%TO.C,Rpd4*%
X68580000Y-72390000D03*
D13*
X78740000Y-72390000D03*
%TD*%
D11*
%TO.C,SW1*%
X119380000Y-59690000D03*
X114300000Y-59690000D03*
%TD*%
%TO.C,SW2*%
X139700000Y-59690000D03*
X134620000Y-59690000D03*
%TD*%
%TO.C,SW3*%
X99060000Y-72390000D03*
X93980000Y-72390000D03*
%TD*%
%TO.C,SW8*%
X93980000Y-92710000D03*
X88900000Y-92710000D03*
%TD*%
%TO.C,R3*%
G36*
G01*
X132500000Y-48844375D02*
X132500000Y-47675625D01*
G75*
G02*
X132765625Y-47410000I265625J0D01*
G01*
X133934375Y-47410000D01*
G75*
G02*
X134200000Y-47675625I0J-265625D01*
G01*
X134200000Y-48844375D01*
G75*
G02*
X133934375Y-49110000I-265625J0D01*
G01*
X132765625Y-49110000D01*
G75*
G02*
X132500000Y-48844375I0J265625D01*
G01*
G37*
%TD*%
%TO.C,SW9*%
X99060000Y-85090000D03*
X93980000Y-85090000D03*
%TD*%
%TO.C,SW16*%
X139700000Y-85090000D03*
X134620000Y-85090000D03*
%TD*%
%TO.C,SW17*%
X144780000Y-92710000D03*
X139700000Y-92710000D03*
%TD*%
%TO.C,SW4*%
X114300000Y-72390000D03*
X109220000Y-72390000D03*
%TD*%
%TO.C,SW12*%
X114300000Y-92710000D03*
X109220000Y-92710000D03*
%TD*%
%TO.C,SW15*%
X134620000Y-92710000D03*
X129540000Y-92710000D03*
%TD*%
%TO.C,SW18*%
X149860000Y-85090000D03*
X144780000Y-85090000D03*
%TD*%
%TO.C,SW6*%
X144780000Y-72390000D03*
X139700000Y-72390000D03*
%TD*%
%TO.C,SW11*%
X109220000Y-85090000D03*
X104140000Y-85090000D03*
%TD*%
%TO.C,SW7*%
X160020000Y-72390000D03*
X154940000Y-72390000D03*
%TD*%
%TO.C,SW14*%
X129540000Y-85090000D03*
X124460000Y-85090000D03*
%TD*%
%TO.C,SW19*%
X154940000Y-92710000D03*
X149860000Y-92710000D03*
%TD*%
%TO.C,SW13*%
X124460000Y-92710000D03*
X119380000Y-92710000D03*
%TD*%
%TO.C,SW10*%
X104140000Y-92710000D03*
X99060000Y-92710000D03*
%TD*%
%TO.C,R4*%
G36*
G01*
X138850000Y-48844375D02*
X138850000Y-47675625D01*
G75*
G02*
X139115625Y-47410000I265625J0D01*
G01*
X140284375Y-47410000D01*
G75*
G02*
X140550000Y-47675625I0J-265625D01*
G01*
X140550000Y-48844375D01*
G75*
G02*
X140284375Y-49110000I-265625J0D01*
G01*
X139115625Y-49110000D01*
G75*
G02*
X138850000Y-48844375I0J265625D01*
G01*
G37*
%TD*%
%TO.C,C5*%
G36*
G01*
X113450000Y-48844375D02*
X113450000Y-47675625D01*
G75*
G02*
X113715625Y-47410000I265625J0D01*
G01*
X114884375Y-47410000D01*
G75*
G02*
X115150000Y-47675625I0J-265625D01*
G01*
X115150000Y-48844375D01*
G75*
G02*
X114884375Y-49110000I-265625J0D01*
G01*
X113715625Y-49110000D01*
G75*
G02*
X113450000Y-48844375I0J265625D01*
G01*
G37*
%TD*%
%TO.C,C4*%
G36*
G01*
X107100000Y-48844375D02*
X107100000Y-47675625D01*
G75*
G02*
X107365625Y-47410000I265625J0D01*
G01*
X108534375Y-47410000D01*
G75*
G02*
X108800000Y-47675625I0J-265625D01*
G01*
X108800000Y-48844375D01*
G75*
G02*
X108534375Y-49110000I-265625J0D01*
G01*
X107365625Y-49110000D01*
G75*
G02*
X107100000Y-48844375I0J265625D01*
G01*
G37*
%TD*%
%TO.C,C3*%
G36*
G01*
X100750000Y-48844375D02*
X100750000Y-47675625D01*
G75*
G02*
X101015625Y-47410000I265625J0D01*
G01*
X102184375Y-47410000D01*
G75*
G02*
X102450000Y-47675625I0J-265625D01*
G01*
X102450000Y-48844375D01*
G75*
G02*
X102184375Y-49110000I-265625J0D01*
G01*
X101015625Y-49110000D01*
G75*
G02*
X100750000Y-48844375I0J265625D01*
G01*
G37*
%TD*%
%TO.C,C2*%
G36*
G01*
X94400000Y-48844375D02*
X94400000Y-47675625D01*
G75*
G02*
X94665625Y-47410000I265625J0D01*
G01*
X95834375Y-47410000D01*
G75*
G02*
X96100000Y-47675625I0J-265625D01*
G01*
X96100000Y-48844375D01*
G75*
G02*
X95834375Y-49110000I-265625J0D01*
G01*
X94665625Y-49110000D01*
G75*
G02*
X94400000Y-48844375I0J265625D01*
G01*
G37*
%TD*%
%TO.C,C1*%
G36*
G01*
X88050000Y-48844375D02*
X88050000Y-47675625D01*
G75*
G02*
X88315625Y-47410000I265625J0D01*
G01*
X89484375Y-47410000D01*
G75*
G02*
X89750000Y-47675625I0J-265625D01*
G01*
X89750000Y-48844375D01*
G75*
G02*
X89484375Y-49110000I-265625J0D01*
G01*
X88315625Y-49110000D01*
G75*
G02*
X88050000Y-48844375I0J265625D01*
G01*
G37*
%TD*%
M02*
