M48
; DRILL file {KiCad (5.1.6)-1} date 08/15/20 21:43:05
; FORMAT={-:-/ absolute / inch / decimal}
; #@! TF.CreationDate,2020-08-15T21:43:05-04:00
; #@! TF.GenerationSoftware,Kicad,Pcbnew,(5.1.6)-1
; #@! TF.FileFunction,Plated,1,2,PTH
FMAT,2
INCH
T1C0.0236
T2C0.0300
T3C0.0315
T4C0.0984
%
G90
G05
T1
X3.75Y-1.9
X3.25Y-1.9
X5.5Y-1.9
X5.25Y-1.9
X4.75Y-1.9
X4.0Y-1.9
X3.5Y-1.9
X4.25Y-1.9
X4.5Y-1.9
X5.0Y-1.9
T2
X4.9Y-3.35
X5.1Y-3.35
X6.1Y-2.85
X6.3Y-2.85
X6.3Y-3.65
X6.5Y-3.65
X4.7Y-3.65
X4.9Y-3.65
X4.1Y-3.35
X4.3Y-3.35
X3.7Y-3.35
X3.9Y-3.35
X5.1Y-3.65
X5.3Y-3.65
X4.9Y-2.85
X5.1Y-2.85
X5.5Y-2.85
X5.7Y-2.85
X5.3Y-3.35
X5.5Y-3.35
X5.3Y-2.35
X5.5Y-2.35
X3.9Y-3.65
X4.1Y-3.65
X3.5Y-3.65
X3.7Y-3.65
X3.7Y-2.85
X3.9Y-2.85
X4.3Y-3.65
X4.5Y-3.65
X5.9Y-3.65
X6.1Y-3.65
X5.5Y-3.65
X5.7Y-3.65
X4.5Y-2.35
X4.7Y-2.35
X4.3Y-2.85
X4.5Y-2.85
X5.7Y-3.35
X5.9Y-3.35
T3
X2.7Y-2.45
X3.1Y-2.45
X2.7Y-2.65
X3.1Y-2.65
X2.7Y-2.85
X3.1Y-2.85
X2.7Y-2.25
X3.1Y-2.25
T4
X6.95Y-3.95
X6.95Y-1.75
X2.8Y-3.95
X2.8Y-1.75
T0
M30
