%TF.GenerationSoftware,KiCad,Pcbnew,(5.1.6)-1*%
%TF.CreationDate,2020-08-15T21:43:02-04:00*%
%TF.ProjectId,chords,63686f72-6473-42e6-9b69-6361645f7063,rev?*%
%TF.SameCoordinates,Original*%
%TF.FileFunction,Copper,L1,Top*%
%TF.FilePolarity,Positive*%
%FSLAX46Y46*%
G04 Gerber Fmt 4.6, Leading zero omitted, Abs format (unit mm)*
G04 Created by KiCad (PCBNEW (5.1.6)-1) date 2020-08-15 21:43:02*
%MOMM*%
%LPD*%
G01*
G04 APERTURE LIST*
%TA.AperFunction,SMDPad,CuDef*%
%ADD10R,0.600000X0.450000*%
%TD*%
%TA.AperFunction,ComponentPad*%
%ADD11C,5.000000*%
%TD*%
%TA.AperFunction,ComponentPad*%
%ADD12C,1.524000*%
%TD*%
%TA.AperFunction,ComponentPad*%
%ADD13C,1.600000*%
%TD*%
%TA.AperFunction,ComponentPad*%
%ADD14O,1.600000X1.600000*%
%TD*%
%TA.AperFunction,Conductor*%
%ADD15C,0.250000*%
%TD*%
G04 APERTURE END LIST*
D10*
%TO.P,D20,2*%
%TO.N,Net-(D20-Pad2)*%
X177580000Y-92710000D03*
%TO.P,D20,1*%
%TO.N,Net-(D16-Pad1)*%
X175480000Y-92710000D03*
%TD*%
%TO.P,D19,2*%
%TO.N,Net-(D19-Pad2)*%
X168690000Y-101600000D03*
%TO.P,D19,1*%
%TO.N,Net-(D16-Pad1)*%
X166590000Y-101600000D03*
%TD*%
%TO.P,D18,2*%
%TO.N,Net-(D18-Pad2)*%
X159800000Y-101600000D03*
%TO.P,D18,1*%
%TO.N,Net-(D16-Pad1)*%
X157700000Y-101600000D03*
%TD*%
%TO.P,D17,2*%
%TO.N,Net-(D17-Pad2)*%
X150910000Y-101600000D03*
%TO.P,D17,1*%
%TO.N,Net-(D16-Pad1)*%
X148810000Y-101600000D03*
%TD*%
%TO.P,D16,2*%
%TO.N,Net-(D16-Pad2)*%
X142415000Y-101600000D03*
%TO.P,D16,1*%
%TO.N,Net-(D16-Pad1)*%
X140315000Y-101600000D03*
%TD*%
%TO.P,D15,2*%
%TO.N,Net-(D15-Pad2)*%
X133130000Y-101600000D03*
%TO.P,D15,1*%
%TO.N,Net-(D11-Pad1)*%
X131030000Y-101600000D03*
%TD*%
%TO.P,D14,2*%
%TO.N,Net-(D14-Pad2)*%
X122970000Y-101600000D03*
%TO.P,D14,1*%
%TO.N,Net-(D11-Pad1)*%
X120870000Y-101600000D03*
%TD*%
%TO.P,D13,2*%
%TO.N,Net-(D13-Pad2)*%
X112810000Y-101600000D03*
%TO.P,D13,1*%
%TO.N,Net-(D11-Pad1)*%
X110710000Y-101600000D03*
%TD*%
%TO.P,D12,2*%
%TO.N,Net-(D12-Pad2)*%
X103920000Y-101600000D03*
%TO.P,D12,1*%
%TO.N,Net-(D11-Pad1)*%
X101820000Y-101600000D03*
%TD*%
%TO.P,D11,2*%
%TO.N,Net-(D11-Pad2)*%
X95030000Y-101600000D03*
%TO.P,D11,1*%
%TO.N,Net-(D11-Pad1)*%
X92930000Y-101600000D03*
%TD*%
%TO.P,D10,2*%
%TO.N,Net-(D10-Pad2)*%
X86535000Y-101600000D03*
%TO.P,D10,1*%
%TO.N,Net-(D10-Pad1)*%
X84435000Y-101600000D03*
%TD*%
%TO.P,D9,2*%
%TO.N,Net-(D9-Pad2)*%
X78520000Y-92710000D03*
%TO.P,D9,1*%
%TO.N,Net-(D10-Pad1)*%
X76420000Y-92710000D03*
%TD*%
%TO.P,D8,2*%
%TO.N,Net-(D8-Pad2)*%
X78520000Y-86360000D03*
%TO.P,D8,1*%
%TO.N,Net-(D10-Pad1)*%
X76420000Y-86360000D03*
%TD*%
%TO.P,D7,2*%
%TO.N,Net-(D7-Pad2)*%
X150910000Y-78740000D03*
%TO.P,D7,1*%
%TO.N,Net-(D10-Pad1)*%
X148810000Y-78740000D03*
%TD*%
%TO.P,D6,2*%
%TO.N,Net-(D6-Pad2)*%
X135670000Y-78740000D03*
%TO.P,D6,1*%
%TO.N,Net-(D10-Pad1)*%
X133570000Y-78740000D03*
%TD*%
%TO.P,D5,2*%
%TO.N,Net-(D5-Pad2)*%
X120430000Y-78740000D03*
%TO.P,D5,1*%
%TO.N,Net-(D1-Pad1)*%
X118330000Y-78740000D03*
%TD*%
%TO.P,D4,2*%
%TO.N,Net-(D4-Pad2)*%
X105190000Y-78740000D03*
%TO.P,D4,1*%
%TO.N,Net-(D1-Pad1)*%
X103090000Y-78740000D03*
%TD*%
%TO.P,D3,2*%
%TO.N,Net-(D3-Pad2)*%
X88680000Y-78740000D03*
%TO.P,D3,1*%
%TO.N,Net-(D1-Pad1)*%
X86580000Y-78740000D03*
%TD*%
%TO.P,D2,2*%
%TO.N,Net-(D2-Pad2)*%
X129320000Y-66040000D03*
%TO.P,D2,1*%
%TO.N,Net-(D1-Pad1)*%
X127220000Y-66040000D03*
%TD*%
%TO.P,D1,2*%
%TO.N,Net-(D1-Pad2)*%
X109395000Y-66040000D03*
%TO.P,D1,1*%
%TO.N,Net-(D1-Pad1)*%
X107295000Y-66040000D03*
%TD*%
D11*
%TO.P,REF\u002A\u002A,1*%
%TO.N,N/C*%
X71120000Y-100330000D03*
%TD*%
%TO.P,REF\u002A\u002A,1*%
%TO.N,N/C*%
X71120000Y-44450000D03*
%TD*%
%TO.P,REF\u002A\u002A,1*%
%TO.N,N/C*%
X176530000Y-100330000D03*
%TD*%
%TO.P,REF\u002A\u002A,1*%
%TO.N,N/C*%
X176530000Y-44450000D03*
%TD*%
D12*
%TO.P,SW20,2*%
%TO.N,Net-(C5-Pad1)*%
X165100000Y-92710000D03*
%TO.P,SW20,1*%
%TO.N,Net-(D20-Pad2)*%
X160020000Y-92710000D03*
%TD*%
%TO.P,SW5,2*%
%TO.N,Net-(C5-Pad1)*%
X129540000Y-72390000D03*
%TO.P,SW5,1*%
%TO.N,Net-(D5-Pad2)*%
X124460000Y-72390000D03*
%TD*%
%TO.P,GND1,1*%
%TO.N,Net-(GND1-Pad1)*%
%TA.AperFunction,ComponentPad*%
G36*
G01*
X81750000Y-48810000D02*
X81750000Y-47710000D01*
G75*
G02*
X82000000Y-47460000I250000J0D01*
G01*
X83100000Y-47460000D01*
G75*
G02*
X83350000Y-47710000I0J-250000D01*
G01*
X83350000Y-48810000D01*
G75*
G02*
X83100000Y-49060000I-250000J0D01*
G01*
X82000000Y-49060000D01*
G75*
G02*
X81750000Y-48810000I0J250000D01*
G01*
G37*
%TD.AperFunction*%
%TD*%
%TO.P,R1,1*%
%TO.N,Net-(D1-Pad1)*%
%TA.AperFunction,ComponentPad*%
G36*
G01*
X119850000Y-48810000D02*
X119850000Y-47710000D01*
G75*
G02*
X120100000Y-47460000I250000J0D01*
G01*
X121200000Y-47460000D01*
G75*
G02*
X121450000Y-47710000I0J-250000D01*
G01*
X121450000Y-48810000D01*
G75*
G02*
X121200000Y-49060000I-250000J0D01*
G01*
X120100000Y-49060000D01*
G75*
G02*
X119850000Y-48810000I0J250000D01*
G01*
G37*
%TD.AperFunction*%
%TD*%
%TO.P,R2,1*%
%TO.N,Net-(D10-Pad1)*%
%TA.AperFunction,ComponentPad*%
G36*
G01*
X126200000Y-48810000D02*
X126200000Y-47710000D01*
G75*
G02*
X126450000Y-47460000I250000J0D01*
G01*
X127550000Y-47460000D01*
G75*
G02*
X127800000Y-47710000I0J-250000D01*
G01*
X127800000Y-48810000D01*
G75*
G02*
X127550000Y-49060000I-250000J0D01*
G01*
X126450000Y-49060000D01*
G75*
G02*
X126200000Y-48810000I0J250000D01*
G01*
G37*
%TD.AperFunction*%
%TD*%
D13*
%TO.P,Rpd3,1*%
%TO.N,Net-(GND1-Pad1)*%
X68580000Y-67310000D03*
D14*
%TO.P,Rpd3,2*%
%TO.N,Net-(D11-Pad1)*%
X78740000Y-67310000D03*
%TD*%
D13*
%TO.P,Rpd1,1*%
%TO.N,Net-(GND1-Pad1)*%
X68580000Y-57150000D03*
D14*
%TO.P,Rpd1,2*%
%TO.N,Net-(D1-Pad1)*%
X78740000Y-57150000D03*
%TD*%
D13*
%TO.P,Rpd2,1*%
%TO.N,Net-(GND1-Pad1)*%
X68580000Y-62230000D03*
D14*
%TO.P,Rpd2,2*%
%TO.N,Net-(D10-Pad1)*%
X78740000Y-62230000D03*
%TD*%
D13*
%TO.P,Rpd4,1*%
%TO.N,Net-(GND1-Pad1)*%
X68580000Y-72390000D03*
D14*
%TO.P,Rpd4,2*%
%TO.N,Net-(D16-Pad1)*%
X78740000Y-72390000D03*
%TD*%
D12*
%TO.P,SW1,2*%
%TO.N,Net-(C1-Pad1)*%
X119380000Y-59690000D03*
%TO.P,SW1,1*%
%TO.N,Net-(D1-Pad2)*%
X114300000Y-59690000D03*
%TD*%
%TO.P,SW2,2*%
%TO.N,Net-(C2-Pad1)*%
X139700000Y-59690000D03*
%TO.P,SW2,1*%
%TO.N,Net-(D2-Pad2)*%
X134620000Y-59690000D03*
%TD*%
%TO.P,SW3,2*%
%TO.N,Net-(C3-Pad1)*%
X99060000Y-72390000D03*
%TO.P,SW3,1*%
%TO.N,Net-(D3-Pad2)*%
X93980000Y-72390000D03*
%TD*%
%TO.P,SW8,2*%
%TO.N,Net-(C3-Pad1)*%
X93980000Y-92710000D03*
%TO.P,SW8,1*%
%TO.N,Net-(D8-Pad2)*%
X88900000Y-92710000D03*
%TD*%
%TO.P,R3,1*%
%TO.N,Net-(D11-Pad1)*%
%TA.AperFunction,ComponentPad*%
G36*
G01*
X132550000Y-48810000D02*
X132550000Y-47710000D01*
G75*
G02*
X132800000Y-47460000I250000J0D01*
G01*
X133900000Y-47460000D01*
G75*
G02*
X134150000Y-47710000I0J-250000D01*
G01*
X134150000Y-48810000D01*
G75*
G02*
X133900000Y-49060000I-250000J0D01*
G01*
X132800000Y-49060000D01*
G75*
G02*
X132550000Y-48810000I0J250000D01*
G01*
G37*
%TD.AperFunction*%
%TD*%
%TO.P,SW9,2*%
%TO.N,Net-(C4-Pad1)*%
X99060000Y-85090000D03*
%TO.P,SW9,1*%
%TO.N,Net-(D9-Pad2)*%
X93980000Y-85090000D03*
%TD*%
%TO.P,SW16,2*%
%TO.N,Net-(C1-Pad1)*%
X139700000Y-85090000D03*
%TO.P,SW16,1*%
%TO.N,Net-(D16-Pad2)*%
X134620000Y-85090000D03*
%TD*%
%TO.P,SW17,2*%
%TO.N,Net-(C2-Pad1)*%
X144780000Y-92710000D03*
%TO.P,SW17,1*%
%TO.N,Net-(D17-Pad2)*%
X139700000Y-92710000D03*
%TD*%
%TO.P,SW4,2*%
%TO.N,Net-(C4-Pad1)*%
X114300000Y-72390000D03*
%TO.P,SW4,1*%
%TO.N,Net-(D4-Pad2)*%
X109220000Y-72390000D03*
%TD*%
%TO.P,SW12,2*%
%TO.N,Net-(C2-Pad1)*%
X114300000Y-92710000D03*
%TO.P,SW12,1*%
%TO.N,Net-(D12-Pad2)*%
X109220000Y-92710000D03*
%TD*%
%TO.P,SW15,2*%
%TO.N,Net-(C5-Pad1)*%
X134620000Y-92710000D03*
%TO.P,SW15,1*%
%TO.N,Net-(D15-Pad2)*%
X129540000Y-92710000D03*
%TD*%
%TO.P,SW18,2*%
%TO.N,Net-(C3-Pad1)*%
X149860000Y-85090000D03*
%TO.P,SW18,1*%
%TO.N,Net-(D18-Pad2)*%
X144780000Y-85090000D03*
%TD*%
%TO.P,SW6,2*%
%TO.N,Net-(C1-Pad1)*%
X144780000Y-72390000D03*
%TO.P,SW6,1*%
%TO.N,Net-(D6-Pad2)*%
X139700000Y-72390000D03*
%TD*%
%TO.P,SW11,2*%
%TO.N,Net-(C1-Pad1)*%
X109220000Y-85090000D03*
%TO.P,SW11,1*%
%TO.N,Net-(D11-Pad2)*%
X104140000Y-85090000D03*
%TD*%
%TO.P,SW7,2*%
%TO.N,Net-(C2-Pad1)*%
X160020000Y-72390000D03*
%TO.P,SW7,1*%
%TO.N,Net-(D7-Pad2)*%
X154940000Y-72390000D03*
%TD*%
%TO.P,SW14,2*%
%TO.N,Net-(C4-Pad1)*%
X129540000Y-85090000D03*
%TO.P,SW14,1*%
%TO.N,Net-(D14-Pad2)*%
X124460000Y-85090000D03*
%TD*%
%TO.P,SW19,2*%
%TO.N,Net-(C4-Pad1)*%
X154940000Y-92710000D03*
%TO.P,SW19,1*%
%TO.N,Net-(D19-Pad2)*%
X149860000Y-92710000D03*
%TD*%
%TO.P,SW13,2*%
%TO.N,Net-(C3-Pad1)*%
X124460000Y-92710000D03*
%TO.P,SW13,1*%
%TO.N,Net-(D13-Pad2)*%
X119380000Y-92710000D03*
%TD*%
%TO.P,SW10,2*%
%TO.N,Net-(C5-Pad1)*%
X104140000Y-92710000D03*
%TO.P,SW10,1*%
%TO.N,Net-(D10-Pad2)*%
X99060000Y-92710000D03*
%TD*%
%TO.P,R4,1*%
%TO.N,Net-(D16-Pad1)*%
%TA.AperFunction,ComponentPad*%
G36*
G01*
X138900000Y-48810000D02*
X138900000Y-47710000D01*
G75*
G02*
X139150000Y-47460000I250000J0D01*
G01*
X140250000Y-47460000D01*
G75*
G02*
X140500000Y-47710000I0J-250000D01*
G01*
X140500000Y-48810000D01*
G75*
G02*
X140250000Y-49060000I-250000J0D01*
G01*
X139150000Y-49060000D01*
G75*
G02*
X138900000Y-48810000I0J250000D01*
G01*
G37*
%TD.AperFunction*%
%TD*%
%TO.P,C5,1*%
%TO.N,Net-(C5-Pad1)*%
%TA.AperFunction,ComponentPad*%
G36*
G01*
X113500000Y-48810000D02*
X113500000Y-47710000D01*
G75*
G02*
X113750000Y-47460000I250000J0D01*
G01*
X114850000Y-47460000D01*
G75*
G02*
X115100000Y-47710000I0J-250000D01*
G01*
X115100000Y-48810000D01*
G75*
G02*
X114850000Y-49060000I-250000J0D01*
G01*
X113750000Y-49060000D01*
G75*
G02*
X113500000Y-48810000I0J250000D01*
G01*
G37*
%TD.AperFunction*%
%TD*%
%TO.P,C4,1*%
%TO.N,Net-(C4-Pad1)*%
%TA.AperFunction,ComponentPad*%
G36*
G01*
X107150000Y-48810000D02*
X107150000Y-47710000D01*
G75*
G02*
X107400000Y-47460000I250000J0D01*
G01*
X108500000Y-47460000D01*
G75*
G02*
X108750000Y-47710000I0J-250000D01*
G01*
X108750000Y-48810000D01*
G75*
G02*
X108500000Y-49060000I-250000J0D01*
G01*
X107400000Y-49060000D01*
G75*
G02*
X107150000Y-48810000I0J250000D01*
G01*
G37*
%TD.AperFunction*%
%TD*%
%TO.P,C3,1*%
%TO.N,Net-(C3-Pad1)*%
%TA.AperFunction,ComponentPad*%
G36*
G01*
X100800000Y-48810000D02*
X100800000Y-47710000D01*
G75*
G02*
X101050000Y-47460000I250000J0D01*
G01*
X102150000Y-47460000D01*
G75*
G02*
X102400000Y-47710000I0J-250000D01*
G01*
X102400000Y-48810000D01*
G75*
G02*
X102150000Y-49060000I-250000J0D01*
G01*
X101050000Y-49060000D01*
G75*
G02*
X100800000Y-48810000I0J250000D01*
G01*
G37*
%TD.AperFunction*%
%TD*%
%TO.P,C2,1*%
%TO.N,Net-(C2-Pad1)*%
%TA.AperFunction,ComponentPad*%
G36*
G01*
X94450000Y-48810000D02*
X94450000Y-47710000D01*
G75*
G02*
X94700000Y-47460000I250000J0D01*
G01*
X95800000Y-47460000D01*
G75*
G02*
X96050000Y-47710000I0J-250000D01*
G01*
X96050000Y-48810000D01*
G75*
G02*
X95800000Y-49060000I-250000J0D01*
G01*
X94700000Y-49060000D01*
G75*
G02*
X94450000Y-48810000I0J250000D01*
G01*
G37*
%TD.AperFunction*%
%TD*%
%TO.P,C1,1*%
%TO.N,Net-(C1-Pad1)*%
%TA.AperFunction,ComponentPad*%
G36*
G01*
X88100000Y-48810000D02*
X88100000Y-47710000D01*
G75*
G02*
X88350000Y-47460000I250000J0D01*
G01*
X89450000Y-47460000D01*
G75*
G02*
X89700000Y-47710000I0J-250000D01*
G01*
X89700000Y-48810000D01*
G75*
G02*
X89450000Y-49060000I-250000J0D01*
G01*
X88350000Y-49060000D01*
G75*
G02*
X88100000Y-48810000I0J250000D01*
G01*
G37*
%TD.AperFunction*%
%TD*%
D15*
%TO.N,Net-(D1-Pad2)*%
X109220000Y-64770000D02*
X114300000Y-59690000D01*
X109220000Y-66040000D02*
X109220000Y-64770000D01*
%TO.N,Net-(D1-Pad1)*%
X86755000Y-65165000D02*
X78740000Y-57150000D01*
X86755000Y-78740000D02*
X86755000Y-65165000D01*
X86755000Y-78740000D02*
X89295000Y-81280000D01*
X100725000Y-81280000D02*
X103265000Y-78740000D01*
X89295000Y-81280000D02*
X100725000Y-81280000D01*
X103265000Y-70245000D02*
X107470000Y-66040000D01*
X103265000Y-78740000D02*
X103265000Y-70245000D01*
X103265000Y-78740000D02*
X107075000Y-82550000D01*
X107075000Y-82550000D02*
X114300000Y-82550000D01*
X118110000Y-78740000D02*
X118505000Y-78740000D01*
X114300000Y-82550000D02*
X118110000Y-78740000D01*
X127395000Y-55005000D02*
X120650000Y-48260000D01*
X127395000Y-66040000D02*
X127395000Y-55005000D01*
X127395000Y-66040000D02*
X127395000Y-66915000D01*
X118505000Y-75805000D02*
X118505000Y-78740000D01*
X127395000Y-66915000D02*
X118505000Y-75805000D01*
%TO.N,Net-(D2-Pad2)*%
X149835010Y-74905010D02*
X134620000Y-59690000D01*
X149835010Y-79210500D02*
X149835010Y-74905010D01*
X149055491Y-79990019D02*
X149835010Y-79210500D01*
X133674509Y-79990019D02*
X149055491Y-79990019D01*
X132894990Y-79210500D02*
X133674509Y-79990019D01*
X132894990Y-69789990D02*
X132894990Y-79210500D01*
X129145000Y-66040000D02*
X132894990Y-69789990D01*
%TO.N,Net-(D11-Pad1)*%
X93105000Y-101600000D02*
X90565000Y-104140000D01*
X85460010Y-102020520D02*
X85460010Y-99959990D01*
X90565000Y-104140000D02*
X87579490Y-104140000D01*
X87579490Y-104140000D02*
X85460010Y-102020520D01*
X85460010Y-99959990D02*
X92892999Y-92527001D01*
X92892999Y-92527001D02*
X92892999Y-87785763D01*
X79865001Y-73170511D02*
X79865001Y-68435001D01*
X130404990Y-102400010D02*
X121450010Y-102400010D01*
X131205000Y-101600000D02*
X130404990Y-102400010D01*
X121045000Y-101995000D02*
X121045000Y-101600000D01*
X121450010Y-102400010D02*
X121045000Y-101995000D01*
X120244990Y-102400010D02*
X121045000Y-101600000D01*
X111685010Y-102400010D02*
X120244990Y-102400010D01*
X110885000Y-101600000D02*
X111685010Y-102400010D01*
X102795010Y-102400010D02*
X109689990Y-102400010D01*
X101995000Y-101600000D02*
X102795010Y-102400010D01*
X110490000Y-101600000D02*
X110885000Y-101600000D01*
X109689990Y-102400010D02*
X110490000Y-101600000D01*
X101194990Y-102400010D02*
X101995000Y-101600000D01*
X93905010Y-102400010D02*
X101194990Y-102400010D01*
X93105000Y-101600000D02*
X93905010Y-102400010D01*
X79865001Y-68435001D02*
X78740000Y-67310000D01*
X79865001Y-75180003D02*
X79865001Y-68435001D01*
X87685007Y-83000009D02*
X79865001Y-75180003D01*
X119355010Y-79210500D02*
X115565501Y-83000009D01*
X119355010Y-75591400D02*
X119355010Y-79210500D01*
X127845009Y-67101401D02*
X119355010Y-75591400D01*
X132444980Y-71701372D02*
X127845009Y-67101401D01*
X132444980Y-79396900D02*
X132444980Y-71701372D01*
X133488108Y-80440028D02*
X132444980Y-79396900D01*
X150355482Y-80440028D02*
X133488108Y-80440028D01*
X156027001Y-74768509D02*
X150355482Y-80440028D01*
X156027001Y-70937001D02*
X156027001Y-74768509D01*
X133350000Y-48260000D02*
X156027001Y-70937001D01*
X95067001Y-83267019D02*
X94799991Y-83000009D01*
X95067001Y-85611761D02*
X95067001Y-83267019D01*
X92892999Y-87785763D02*
X95067001Y-85611761D01*
X115565501Y-83000009D02*
X94799991Y-83000009D01*
X94799991Y-83000009D02*
X87685007Y-83000009D01*
%TO.N,Net-(D3-Pad2)*%
X88505000Y-77865000D02*
X93980000Y-72390000D01*
X88505000Y-78740000D02*
X88505000Y-77865000D01*
%TO.N,Net-(D4-Pad2)*%
X105015000Y-76595000D02*
X109220000Y-72390000D01*
X105015000Y-78740000D02*
X105015000Y-76595000D01*
%TO.N,Net-(D16-Pad1)*%
X175655000Y-95780510D02*
X175655000Y-92710000D01*
X169035500Y-102400010D02*
X175655000Y-95780510D01*
X167565010Y-102400010D02*
X169035500Y-102400010D01*
X166765000Y-101600000D02*
X167565010Y-102400010D01*
X148184990Y-102400010D02*
X148985000Y-101600000D01*
X141290010Y-102400010D02*
X148184990Y-102400010D01*
X149785010Y-102400010D02*
X148985000Y-101600000D01*
X157074990Y-102400010D02*
X149785010Y-102400010D01*
X157875000Y-101600000D02*
X157074990Y-102400010D01*
X158675010Y-102400010D02*
X165964990Y-102400010D01*
X165964990Y-102400010D02*
X166765000Y-101600000D01*
X157875000Y-101600000D02*
X158675010Y-102400010D01*
X178255010Y-86815010D02*
X139700000Y-48260000D01*
X178255010Y-93180500D02*
X178255010Y-86815010D01*
X169035500Y-102400010D02*
X178255010Y-93180500D01*
X140490000Y-101600000D02*
X141290010Y-102400010D01*
%TO.N,Net-(D5-Pad2)*%
X120255000Y-76595000D02*
X124460000Y-72390000D01*
X120255000Y-78740000D02*
X120255000Y-76595000D01*
%TO.N,Net-(D6-Pad2)*%
X135495000Y-76595000D02*
X139700000Y-72390000D01*
X135495000Y-78740000D02*
X135495000Y-76595000D01*
%TO.N,Net-(D7-Pad2)*%
X150735000Y-76595000D02*
X154940000Y-72390000D01*
X150735000Y-78740000D02*
X150735000Y-76595000D01*
%TO.N,Net-(D8-Pad2)*%
X77494990Y-87210010D02*
X77494990Y-96544990D01*
X78345000Y-86360000D02*
X77494990Y-87210010D01*
X77494990Y-96544990D02*
X78740000Y-97790000D01*
X83820000Y-97790000D02*
X88900000Y-92710000D01*
X78740000Y-97790000D02*
X83820000Y-97790000D01*
%TO.N,Net-(D9-Pad2)*%
X86360000Y-92710000D02*
X93980000Y-85090000D01*
X78345000Y-92710000D02*
X86360000Y-92710000D01*
%TO.N,Net-(D10-Pad2)*%
X90170000Y-101600000D02*
X99060000Y-92710000D01*
X86360000Y-101600000D02*
X90170000Y-101600000D01*
%TO.N,Net-(D11-Pad2)*%
X95380000Y-101600000D02*
X101600000Y-95380000D01*
X94855000Y-101600000D02*
X95380000Y-101600000D01*
X101600000Y-87630000D02*
X104140000Y-85090000D01*
X101600000Y-95380000D02*
X101600000Y-87630000D01*
%TO.N,Net-(D12-Pad2)*%
X103745000Y-101600000D02*
X103745000Y-100725000D01*
X109220000Y-95250000D02*
X109220000Y-92710000D01*
X103745000Y-100725000D02*
X109220000Y-95250000D01*
%TO.N,Net-(D13-Pad2)*%
X112635000Y-101600000D02*
X113030000Y-101600000D01*
X119380000Y-95250000D02*
X119380000Y-92710000D01*
X113030000Y-101600000D02*
X119380000Y-95250000D01*
%TO.N,Net-(D14-Pad2)*%
X122795000Y-86755000D02*
X124460000Y-85090000D01*
X122795000Y-101600000D02*
X122795000Y-86755000D01*
%TO.N,Net-(D15-Pad2)*%
X132955000Y-96125000D02*
X129540000Y-92710000D01*
X132955000Y-101600000D02*
X132955000Y-96125000D01*
%TO.N,Net-(D16-Pad2)*%
X137160000Y-93641238D02*
X137160000Y-87630000D01*
X137160000Y-87630000D02*
X134620000Y-85090000D01*
X142240000Y-101600000D02*
X142240000Y-98721238D01*
X142240000Y-98721238D02*
X137160000Y-93641238D01*
%TO.N,Net-(D17-Pad2)*%
X149934990Y-100799990D02*
X149059990Y-100799990D01*
X150735000Y-101600000D02*
X149934990Y-100799990D01*
X140970000Y-92710000D02*
X139700000Y-92710000D01*
X149059990Y-100799990D02*
X140970000Y-92710000D01*
%TO.N,Net-(D18-Pad2)*%
X144780000Y-89238762D02*
X144780000Y-85090000D01*
X156341228Y-100799990D02*
X144780000Y-89238762D01*
X158824990Y-100799990D02*
X156341228Y-100799990D01*
X159625000Y-101600000D02*
X158824990Y-100799990D01*
%TO.N,Net-(D19-Pad2)*%
X167714990Y-100799990D02*
X164299990Y-100799990D01*
X168515000Y-101600000D02*
X167714990Y-100799990D01*
X164299990Y-100799990D02*
X160020000Y-96520000D01*
X153670000Y-96520000D02*
X149860000Y-92710000D01*
X160020000Y-96520000D02*
X153670000Y-96520000D01*
%TO.N,Net-(D20-Pad2)*%
X177405000Y-92710000D02*
X169785000Y-85090000D01*
X167640000Y-85090000D02*
X160020000Y-92710000D01*
X169785000Y-85090000D02*
X167640000Y-85090000D01*
%TO.N,Net-(C3-Pad1)*%
X99060000Y-50800000D02*
X101600000Y-48260000D01*
X99060000Y-72390000D02*
X99060000Y-50800000D01*
%TO.N,Net-(C4-Pad1)*%
X130627001Y-84002999D02*
X146232999Y-84002999D01*
X146232999Y-84002999D02*
X154940000Y-92710000D01*
X129540000Y-85090000D02*
X130627001Y-84002999D01*
%TO.N,Net-(C5-Pad1)*%
X128452999Y-73477001D02*
X129540000Y-72390000D01*
X128452999Y-86542999D02*
X128452999Y-73477001D01*
X134620000Y-92710000D02*
X128452999Y-86542999D01*
%TO.N,Net-(GND1-Pad1)*%
X77470000Y-48260000D02*
X68580000Y-57150000D01*
X82550000Y-48260000D02*
X77470000Y-48260000D01*
X68580000Y-62230000D02*
X68580000Y-57150000D01*
X68580000Y-67310000D02*
X68580000Y-62230000D01*
X68580000Y-72390000D02*
X68580000Y-67310000D01*
%TO.N,Net-(D10-Pad1)*%
X72390000Y-68580000D02*
X78740000Y-62230000D01*
X72390000Y-82550000D02*
X72390000Y-68580000D01*
X76595000Y-92710000D02*
X76595000Y-99455000D01*
X78740000Y-101600000D02*
X84610000Y-101600000D01*
X76595000Y-99455000D02*
X78740000Y-101600000D01*
X133745000Y-60423762D02*
X127000000Y-53678762D01*
X127000000Y-53678762D02*
X127000000Y-48260000D01*
X133745000Y-78740000D02*
X133745000Y-60423762D01*
X148184990Y-79540010D02*
X148985000Y-78740000D01*
X134545010Y-79540010D02*
X148184990Y-79540010D01*
X133745000Y-78740000D02*
X134545010Y-79540010D01*
X77614999Y-61104999D02*
X78740000Y-62230000D01*
X77614999Y-56609999D02*
X77614999Y-61104999D01*
X127000000Y-48260000D02*
X123190000Y-44450000D01*
X123190000Y-41910000D02*
X89774998Y-41910000D01*
X78199999Y-56024999D02*
X78199999Y-55150001D01*
X77614999Y-56609999D02*
X78199999Y-56024999D01*
X78199999Y-55150001D02*
X85090000Y-48260000D01*
X85090000Y-48260000D02*
X85090000Y-44450000D01*
X85090000Y-44450000D02*
X89774998Y-44450000D01*
X123190000Y-41910000D02*
X123190000Y-44450000D01*
X89774998Y-41910000D02*
X89774998Y-44450000D01*
X76420000Y-92710000D02*
X76420000Y-86580000D01*
X76420000Y-86580000D02*
X76420000Y-86360000D01*
X76200000Y-86360000D02*
X72390000Y-82550000D01*
X76420000Y-86360000D02*
X76200000Y-86360000D01*
%TD*%
M02*
