M48
; DRILL file {KiCad (5.1.6)-1} date 08/15/20 20:34:56
; FORMAT={-:-/ absolute / inch / decimal}
; #@! TF.CreationDate,2020-08-15T20:34:56-04:00
; #@! TF.GenerationSoftware,Kicad,Pcbnew,(5.1.6)-1
; #@! TF.FileFunction,Plated,1,2,PTH
FMAT,2
INCH
T1C0.0236
T2C0.0315
T3C0.1063
%
G90
G05
T1
X5.6Y-4.5
X5.8Y-3.3
X5.4Y-3.3
X5.6Y-3.3
T2
X4.9138Y-3.4602
X4.9138Y-3.5602
X4.9138Y-3.6602
X4.9138Y-3.7602
X4.9138Y-3.8602
X4.9138Y-3.9602
X4.9138Y-4.0602
X4.9138Y-4.1602
X5.2138Y-3.4602
X5.2138Y-3.5602
X5.2138Y-3.6602
X5.2138Y-3.7602
X5.2138Y-3.8602
X5.2138Y-3.9602
X5.2138Y-4.0602
X5.2138Y-4.1602
X5.4Y-3.6
X5.4Y-4.0
X4.7Y-3.95
X4.7Y-4.0484
X5.0516Y-4.45
X5.15Y-4.45
T3
X6.1Y-3.3
X4.75Y-3.3
X6.1Y-4.55
X4.75Y-4.55
T0
M30
