%TF.GenerationSoftware,KiCad,Pcbnew,(5.1.6)-1*%
%TF.CreationDate,2020-08-15T20:34:50-04:00*%
%TF.ProjectId,VCO,56434f2e-6b69-4636-9164-5f7063625858,rev?*%
%TF.SameCoordinates,Original*%
%TF.FileFunction,Copper,L1,Top*%
%TF.FilePolarity,Positive*%
%FSLAX46Y46*%
G04 Gerber Fmt 4.6, Leading zero omitted, Abs format (unit mm)*
G04 Created by KiCad (PCBNEW (5.1.6)-1) date 2020-08-15 20:34:50*
%MOMM*%
%LPD*%
G01*
G04 APERTURE LIST*
%TA.AperFunction,ComponentPad*%
%ADD10C,4.700000*%
%TD*%
%TA.AperFunction,ComponentPad*%
%ADD11O,1.600000X1.600000*%
%TD*%
%TA.AperFunction,ComponentPad*%
%ADD12R,1.600000X1.600000*%
%TD*%
%TA.AperFunction,ComponentPad*%
%ADD13C,1.600000*%
%TD*%
%TA.AperFunction,Conductor*%
%ADD14C,0.250000*%
%TD*%
G04 APERTURE END LIST*
D10*
%TO.P,REF\u002A\u002A,1*%
%TO.N,N/C*%
X154940000Y-115570000D03*
%TD*%
%TO.P,REF\u002A\u002A,1*%
%TO.N,N/C*%
X120650000Y-115570000D03*
%TD*%
%TO.P,REF\u002A\u002A,1*%
%TO.N,N/C*%
X120650000Y-83820000D03*
%TD*%
%TO.P,REF\u002A\u002A,1*%
%TO.N,N/C*%
X154940000Y-83820000D03*
%TD*%
%TO.P,GND,1*%
%TO.N,Earth*%
%TA.AperFunction,ComponentPad*%
G36*
G01*
X141440000Y-84370000D02*
X141440000Y-83270000D01*
G75*
G02*
X141690000Y-83020000I250000J0D01*
G01*
X142790000Y-83020000D01*
G75*
G02*
X143040000Y-83270000I0J-250000D01*
G01*
X143040000Y-84370000D01*
G75*
G02*
X142790000Y-84620000I-250000J0D01*
G01*
X141690000Y-84620000D01*
G75*
G02*
X141440000Y-84370000I0J250000D01*
G01*
G37*
%TD.AperFunction*%
%TD*%
%TO.P,VDD,1*%
%TO.N,Net-(U1-Pad16)*%
%TA.AperFunction,ComponentPad*%
G36*
G01*
X136360000Y-84370000D02*
X136360000Y-83270000D01*
G75*
G02*
X136610000Y-83020000I250000J0D01*
G01*
X137710000Y-83020000D01*
G75*
G02*
X137960000Y-83270000I0J-250000D01*
G01*
X137960000Y-84370000D01*
G75*
G02*
X137710000Y-84620000I-250000J0D01*
G01*
X136610000Y-84620000D01*
G75*
G02*
X136360000Y-84370000I0J250000D01*
G01*
G37*
%TD.AperFunction*%
%TD*%
%TO.P,VCO OUT,1*%
%TO.N,Net-(U1-Pad4)*%
%TA.AperFunction,ComponentPad*%
G36*
G01*
X141440000Y-114850000D02*
X141440000Y-113750000D01*
G75*
G02*
X141690000Y-113500000I250000J0D01*
G01*
X142790000Y-113500000D01*
G75*
G02*
X143040000Y-113750000I0J-250000D01*
G01*
X143040000Y-114850000D01*
G75*
G02*
X142790000Y-115100000I-250000J0D01*
G01*
X141690000Y-115100000D01*
G75*
G02*
X141440000Y-114850000I0J250000D01*
G01*
G37*
%TD.AperFunction*%
%TD*%
%TO.P,VCO IN,1*%
%TO.N,Net-(C2-Pad1)*%
%TA.AperFunction,ComponentPad*%
G36*
G01*
X146520000Y-84370000D02*
X146520000Y-83270000D01*
G75*
G02*
X146770000Y-83020000I250000J0D01*
G01*
X147870000Y-83020000D01*
G75*
G02*
X148120000Y-83270000I0J-250000D01*
G01*
X148120000Y-84370000D01*
G75*
G02*
X147870000Y-84620000I-250000J0D01*
G01*
X146770000Y-84620000D01*
G75*
G02*
X146520000Y-84370000I0J250000D01*
G01*
G37*
%TD.AperFunction*%
%TD*%
D11*
%TO.P,U1,16*%
%TO.N,Net-(U1-Pad16)*%
X132430000Y-87890000D03*
%TO.P,U1,8*%
%TO.N,Earth*%
X124810000Y-105670000D03*
%TO.P,U1,15*%
%TO.N,Net-(U1-Pad15)*%
X132430000Y-90430000D03*
%TO.P,U1,7*%
%TO.N,Net-(C1-Pad2)*%
X124810000Y-103130000D03*
%TO.P,U1,14*%
%TO.N,Net-(U1-Pad14)*%
X132430000Y-92970000D03*
%TO.P,U1,6*%
%TO.N,Net-(C1-Pad1)*%
X124810000Y-100590000D03*
%TO.P,U1,13*%
%TO.N,Net-(U1-Pad13)*%
X132430000Y-95510000D03*
%TO.P,U1,5*%
%TO.N,Earth*%
X124810000Y-98050000D03*
%TO.P,U1,12*%
%TO.N,Net-(U1-Pad12)*%
X132430000Y-98050000D03*
%TO.P,U1,4*%
%TO.N,Net-(U1-Pad4)*%
X124810000Y-95510000D03*
%TO.P,U1,11*%
%TO.N,Net-(R1-Pad1)*%
X132430000Y-100590000D03*
%TO.P,U1,3*%
%TO.N,Net-(U1-Pad3)*%
X124810000Y-92970000D03*
%TO.P,U1,10*%
%TO.N,Net-(U1-Pad10)*%
X132430000Y-103130000D03*
%TO.P,U1,2*%
%TO.N,Net-(U1-Pad2)*%
X124810000Y-90430000D03*
%TO.P,U1,9*%
%TO.N,Net-(C2-Pad1)*%
X132430000Y-105670000D03*
D12*
%TO.P,U1,1*%
%TO.N,Net-(U1-Pad1)*%
X124810000Y-87890000D03*
%TD*%
D11*
%TO.P,R1,2*%
%TO.N,Earth*%
X137160000Y-91440000D03*
D13*
%TO.P,R1,1*%
%TO.N,Net-(R1-Pad1)*%
X137160000Y-101600000D03*
%TD*%
%TO.P,C2,2*%
%TO.N,Earth*%
X128310000Y-113030000D03*
D12*
%TO.P,C2,1*%
%TO.N,Net-(C2-Pad1)*%
X130810000Y-113030000D03*
%TD*%
D13*
%TO.P,C1,2*%
%TO.N,Net-(C1-Pad2)*%
X119380000Y-102830000D03*
%TO.P,C1,1*%
%TO.N,Net-(C1-Pad1)*%
X119380000Y-100330000D03*
%TD*%
D14*
%TO.N,Net-(C1-Pad2)*%
X124510000Y-102830000D02*
X124810000Y-103130000D01*
X118110000Y-102830000D02*
X124510000Y-102830000D01*
%TO.N,Net-(C1-Pad1)*%
X124550000Y-100330000D02*
X124810000Y-100590000D01*
X118110000Y-100330000D02*
X124550000Y-100330000D01*
%TO.N,Net-(C2-Pad1)*%
X130810000Y-107290000D02*
X132430000Y-105670000D01*
X130810000Y-113030000D02*
X130810000Y-107290000D01*
X147320000Y-93105002D02*
X134755002Y-105670000D01*
X134755002Y-105670000D02*
X132430000Y-105670000D01*
X147320000Y-83820000D02*
X147320000Y-93105002D01*
%TO.N,Earth*%
X128764999Y-94095001D02*
X124810000Y-98050000D01*
X134504999Y-94095001D02*
X128764999Y-94095001D01*
X137160000Y-91440000D02*
X134504999Y-94095001D01*
X128310000Y-109170000D02*
X124810000Y-105670000D01*
X128310000Y-113030000D02*
X128310000Y-109170000D01*
X125935001Y-99175001D02*
X125935001Y-104544999D01*
X124810000Y-98050000D02*
X125935001Y-99175001D01*
X125935001Y-104544999D02*
X124810000Y-105670000D01*
X125935001Y-102879997D02*
X125935001Y-104544999D01*
X131889999Y-96924999D02*
X125935001Y-102879997D01*
X134215001Y-96924999D02*
X131889999Y-96924999D01*
X142240000Y-83820000D02*
X142240000Y-88900000D01*
X142240000Y-88900000D02*
X134215001Y-96924999D01*
%TO.N,Net-(R1-Pad1)*%
X133440000Y-101600000D02*
X132430000Y-100590000D01*
X137160000Y-101600000D02*
X133440000Y-101600000D01*
%TO.N,Net-(U1-Pad16)*%
X136500000Y-83820000D02*
X132430000Y-87890000D01*
X137160000Y-83820000D02*
X136500000Y-83820000D01*
%TO.N,Net-(U1-Pad4)*%
X122293590Y-95510000D02*
X124810000Y-95510000D01*
X117659990Y-100143600D02*
X122293590Y-95510000D01*
X117659990Y-104044992D02*
X117659990Y-100143600D01*
X127914998Y-114300000D02*
X117659990Y-104044992D01*
X142240000Y-114300000D02*
X127914998Y-114300000D01*
%TD*%
M02*
